<svg width="640" height="420" viewBox="0 0 640 420" fill="none" xmlns="http://www.w3.org/2000/svg">
  <rect width="640" height="420" rx="24" fill="#F8FAFC"/>
  <rect x="28" y="28" width="584" height="364" rx="20" fill="#FFFFFF" stroke="#E2E8F0"/>
  <rect x="56" y="56" width="180" height="24" rx="12" fill="#EFF6FF"/>
  <rect x="64" y="62" width="70" height="12" rx="6" fill="#1D4ED8" opacity="0.9"/>
  <rect x="144" y="62" width="80" height="12" rx="6" fill="#CBD5E1"/>

  <rect x="56" y="100" width="250" height="210" rx="14" fill="#F8FAFC" stroke="#E2E8F0"/>
  <rect x="74" y="120" width="110" height="12" rx="6" fill="#CBD5E1"/>
  <rect x="74" y="144" width="190" height="10" rx="5" fill="#E2E8F0"/>
  <rect x="74" y="162" width="170" height="10" rx="5" fill="#E2E8F0"/>
  <rect x="74" y="180" width="140" height="10" rx="5" fill="#E2E8F0"/>
  <rect x="74" y="210" width="88" height="32" rx="10" fill="#1D4ED8"/>
  <rect x="172" y="210" width="88" height="32" rx="10" fill="#EFF6FF"/>
  <circle cx="74" cy="268" r="6" fill="#FB923C"/>
  <circle cx="94" cy="268" r="6" fill="#1D4ED8"/>

  <rect x="330" y="100" width="254" height="210" rx="14" fill="#F8FAFC" stroke="#E2E8F0"/>
  <rect x="348" y="122" width="90" height="22" rx="11" fill="#FFF7ED" stroke="#FED7AA"/>
  <rect x="360" y="129" width="66" height="8" rx="4" fill="#EA580C"/>
  <rect x="348" y="160" width="96" height="10" rx="5" fill="#CBD5E1"/>
  <rect x="348" y="178" width="120" height="10" rx="5" fill="#E2E8F0"/>
  <rect x="348" y="208" width="210" height="12" rx="6" fill="#E2E8F0"/>
  <rect x="348" y="228" width="180" height="12" rx="6" fill="#E2E8F0"/>
  <rect x="348" y="248" width="136" height="12" rx="6" fill="#E2E8F0"/>

  <circle cx="528" cy="84" r="22" fill="#EFF6FF"/>
  <path d="M528 72V96" stroke="#1D4ED8" stroke-width="4" stroke-linecap="round"/>
  <path d="M516 84H540" stroke="#1D4ED8" stroke-width="4" stroke-linecap="round"/>
</svg>
